# xmcd CD database file
#
# Track frame offsets:
#	150
#	12958
#	50633
#	73313
#	93616
#	114007
#	144507
#	170298
#	199971
#	220552
#
# Disc length: 4440 seconds
#
# Revision: 0
# Processed by: cddbd v1.5.1PL2 Copyright (c) Steve Scherf et al.
# Submitted via: CDex 1.50
#
DISCID=8c11560a
DTITLE=Dzem - Detox
DYEAR=1991
DGENRE=Blues
TTITLE0=Smiech, czy lzy
TTITLE1=Ostatnie widzenie
TTITLE2=Mamy forse - mamy czas
TTITLE3=Jak malowany ptak
TTITLE4=Czarny chleb
TTITLE5=Detox
TTITLE6=Sen o Victorii
TTITLE7=List do M.
TTITLE8=Letni spacer z Agnieszka
TTITLE9=unknown
EXTD=YEAR: 1991
EXTT0=
EXTT1=
EXTT2=
EXTT3=
EXTT4=
EXTT5=
EXTT6=
EXTT7=
EXTT8=
EXTT9=
PLAYORDER=
